HIERARCHY
ROOT Hips
{
  OFFSET 62.8612 92.6859 23.4994
  CHANNELS 6 Xposition Yposition Zposition Zrotation Xrotation Yrotation
  JOINT RightUpLeg
  {
    OFFSET -8.9458 -8.66707 0.101652
    CHANNELS 3 Zrotation Xrotation Yrotation
    JOINT RightLeg
    {
      OFFSET 0 -44.4227 1.3727
      CHANNELS 3 Zrotation Xrotation Yrotation
      JOINT RightFoot
      {
        OFFSET 0.253549 -42.0924 -1.46059
        CHANNELS 3 Zrotation Xrotation Yrotation
        JOINT RightToes
        {
          OFFSET 0.04 -4.41509 8.4991
          CHANNELS 3 Zrotation Xrotation Yrotation
          End Site
          {
            OFFSET -0.08 -0.137448 9.77979
          }
        }
      }
    }
  }
  JOINT Spine
  {
    OFFSET 0 11.8905 0
    CHANNELS 3 Zrotation Xrotation Yrotation
    JOINT Spine1
    {
      OFFSET 0 25.6574 0.127663
      CHANNELS 3 Zrotation Xrotation Yrotation
      JOINT HEad
      {
        OFFSET 0 8.73416 0.011341
        CHANNELS 3 Zrotation Xrotation Yrotation
        End Site
        {
          OFFSET -0.29 12.7742 2.51395
        }
      }
      JOINT LeftShoulder1
      {
        OFFSET 8.99 -0.362252 -0.22
        CHANNELS 3 Zrotation Xrotation Yrotation
        JOINT LeftArm
        {
          OFFSET 10.2827 -0.00338 0.322123
          CHANNELS 3 Zrotation Xrotation Yrotation
          JOINT LeftForeArm
          {
            OFFSET 32.7669 0.099144 -1.42434
            CHANNELS 3 Zrotation Xrotation Yrotation
            JOINT LeftHand
            {
              OFFSET 27.5643 0.085362 1.02216
              CHANNELS 3 Zrotation Xrotation Yrotation
              End Site
              {
                OFFSET 16.7443 -0.6 1.50291
              }
            }
          }
        }
      }
      JOINT RightShoulder
      {
        OFFSET -8.99 -0.362252 -0.22
        CHANNELS 3 Zrotation Xrotation Yrotation
        JOINT RightArm
        {
          OFFSET -10.2827 -0.00338 0.322123
          CHANNELS 3 Zrotation Xrotation Yrotation
          JOINT RightForeArm
          {
            OFFSET -32.8971 0.099144 -1.42434
            CHANNELS 3 Zrotation Xrotation Yrotation
            JOINT RightHand
            {
              OFFSET -27.4921 0.085362 1.02216
              CHANNELS 3 Zrotation Xrotation Yrotation
              End Site
              {
                OFFSET -16.6312 -0.6 1.50291
              }
            }
          }
        }
      }
    }
  }
  JOINT LeftUpLeg
  {
    OFFSET 8.9458 -8.66707 0.101652
    CHANNELS 3 Zrotation Xrotation Yrotation
    JOINT LeftLeg
    {
      OFFSET 0 -44.4227 1.3727
      CHANNELS 3 Zrotation Xrotation Yrotation
      JOINT LeftFoot
      {
        OFFSET -0.253549 -42.0924 -1.46059
        CHANNELS 3 Zrotation Xrotation Yrotation
        JOINT LeftToes
        {
          OFFSET -0.04 -4.41509 8.4991
          CHANNELS 3 Zrotation Xrotation Yrotation
          End Site
          {
            OFFSET 0.08 -0.047448 9.77979
          }
        }
      }
    }
  }
}
MOTION
Frames:	7
Frame Time:	0.0166667
62.6504 90.5581 22.0341 -5.84512 4.4057 173.523 -16.5471 -33.3479 6.79162 -5.25847 38.3399 14.1383 10.1407 27.0192 -3.01642 -12.0428 -68.6723 8.87124 9.56739 11.4022 -3.72865 11.342 21.3532 -7.36215 9.09638 -5.23125 -9.26667 -1.59028e-015 6.36111e-015 3.18055e-015 -78.4805 -26.9469 -10.5202 -21.8926 45.7079 -108.758 6.54677 9.62745 -1.04006 23.2721 -2.46165 -12.1019 48.7096 11.9564 57.1177 -18.9938 15.4018 136.794 -6.87673 10.6991 -19.3537 15.6606 -3.06732 -7.06913 -30.1057 47.0781 28.2154 -10.0324 26.7569 2.83803 45.1269 -45.6859 39.4303 
63.0234 91.0435 22.3169 -6.0652 4.44206 175.02 -17.0927 -32.428 6.18603 -5.0389 37.8211 13.2103 9.7981 25.578 -2.79623 -10.3806 -65.8778 10.1936 9.2489 11.3641 -3.82272 11.1798 21.361 -7.6439 8.82159 -4.95075 -8.35448 3.18055e-015 0 1.59028e-015 -78.5788 -23.8039 -11.5053 -21.3807 44.517 -108.302 6.54677 9.62745 -1.04006 23.9588 -2.39612 -11.5962 51.2171 9.63724 54.5796 -17.9922 16.8596 136.975 -4.13373 10.3388 -19.2253 15.3626 -3.85035 -7.59186 -30.2785 47.3721 29.7035 -6.33086 24.9583 1.63325 40.0624 -45.1759 32.9681 
63.3555 91.4673 22.5195 -6.06156 4.35978 176.469 -17.6317 -31.5304 5.35572 -4.38535 37.1238 12.3208 8.6188 25.3298 -2.43575 -12.0633 -64.7426 7.72357 9.13031 11.2656 -3.7639 11.0803 21.2185 -7.56045 8.17746 -4.80805 -7.14014 2.38542e-015 -9.54166e-015 4.77083e-015 -78.9101 -20.4248 -13.5818 -20.3647 42.9017 -107.98 6.54677 9.62745 -1.04006 24.2308 -2.33462 -11.2669 52.3264 8.38658 52.6157 -18.6614 16.8198 136.224 -8.13803 10.6833 -16.5663 15.3474 -4.21579 -7.55996 -29.8496 47.2685 31.1512 -3.92718 24.4767 0.935808 38.0131 -46.103 28.8626 
63.8537 91.7798 22.8399 -6.00752 4.05793 177.83 -17.9917 -31.0796 5.10599 -3.24169 36.6096 10.6486 7.03041 25.3232 -1.97737 -13.9042 -63.942 5.10975 8.99304 11.1532 -3.79313 10.8186 21.0331 -7.59033 7.15546 -4.50583 -6.88459 -1.59028e-015 -6.36111e-015 -0 -79.6876 -18.0443 -15.2079 -19.9104 42.4196 -108.321 6.54677 9.62745 -1.04006 24.1625 -2.35736 -11.3769 54.7563 5.93902 50.8911 -18.3974 19.3668 136.233 -11.033 10.8191 -14.6526 15.7488 -4.94987 -7.12263 -29.8337 47.8087 32.5732 -5.30979 20.9285 1.1788 32.6827 -44.3942 22.5653 
64.0974 92.0025 23.2661 -5.67335 4.08059 178.793 -18.1099 -30.7993 6.27949 -1.15502 36.8234 8.44399 6.20081 22.6708 -1.6108 -14.5188 -59.2205 2.70377 8.8438 11.1112 -3.60423 9.96606 20.9498 -7.0356 7.55404 -3.69425 -7.45062 -7.95139e-016 0 -3.18055e-015 -80.1761 -15.7605 -16.924 -19.462 42.3155 -109.037 6.54677 9.62745 -1.04006 24.4967 -2.47086 -11.6924 55.1139 5.46994 49.333 -18.3991 19.2274 135.14 -15.718 10.7888 -11.1791 16.8025 -5.248 -7.42151 -32.607 47.6008 34.4255 -5.89561 16.6158 1.12862 27.6779 -39.8876 19.3284 
64.4304 92.2284 23.6825 -5.27313 4.08775 -179.983 -18.1299 -30.4285 6.27424 -0.0821722 36.9519 7.10994 5.77446 20.1616 -1.38741 -13.0089 -54.6514 3.15092 8.70944 11.0753 -3.49145 9.50779 20.9 -6.73772 6.92498 -3.60066 -8.63501 3.18055e-015 0 -0 -81.3098 -14.1401 -19.1686 -18.8655 42.5789 -109.721 6.54677 9.62745 -1.04006 24.0809 -2.49353 -11.9265 58.3108 2.4785 47.2746 -16.7191 21.3771 135.923 -14.3886 10.739 -11.4301 17.5773 -5.77815 -6.50993 -33.8381 48.5252 30.512 -8.06731 11.4022 1.2539 23.249 -35.3931 16.44 
64.7293 92.2458 24.1727 -4.83325 4.3794 -178.152 -18.4115 -29.6772 5.15221 0.611465 37.1071 6.40857 5.08139 18.9527 -1.17374 -13.7269 -52.358 1.25985 8.57864 11.1294 -3.52273 8.87753 21.0302 -6.64054 6.89628 -3.39261 -10.3547 2.38542e-015 0 1.59028e-015 -81.6665 -12.4363 -22.0257 -19.1464 43.3244 -109.959 6.54677 9.62745 -1.04006 24.1139 -2.54597 -12.1152 61.4771 -1.26219 45.6169 -16.1488 23.9926 137.045 -15.145 10.6221 -10.1167 18.268 -6.10595 -6.52771 -34.9531 48.6093 25.5614 -10.6155 11.3887 1.67717 25.8399 -38.3208 17.8395 
